<svg width="161" height="44" viewBox="0 0 161 44" fill="none" xmlns="http://www.w3.org/2000/svg">
<g filter="url(#filter0_d_2_3)">
<path d="M3.03031 40V12.4H8.59031V40H3.03031ZM25.7297 40V27.76C25.7297 26.1867 25.343 25 24.5697 24.2C23.7964 23.4 22.8364 23 21.6897 23C20.543 23 19.583 23.4 18.8097 24.2C18.0364 25 17.6497 26.1867 17.6497 27.76H16.4897C16.4897 25.76 16.7964 24.0533 17.4097 22.64C18.0497 21.2267 18.9164 20.1467 20.0097 19.4C21.1297 18.6533 22.423 18.28 23.8897 18.28C25.2764 18.28 26.503 18.6267 27.5697 19.32C28.663 19.9867 29.5164 20.9467 30.1297 22.2C30.743 23.4267 31.0497 24.92 31.0497 26.68V40H25.7297ZM12.3297 40V18.8H17.6497V40H12.3297ZM58.9659 40.52C56.9926 40.52 55.2326 40.0533 53.6859 39.12C52.1659 38.1867 50.9659 36.8933 50.0859 35.24C49.2326 33.5867 48.8059 31.64 48.8059 29.4C48.8059 27.16 49.2326 25.2133 50.0859 23.56C50.9659 21.88 52.1659 20.5867 53.6859 19.68C55.2326 18.7467 56.9926 18.28 58.9659 18.28C60.9926 18.28 62.7659 18.7467 64.2859 19.68C65.8059 20.5867 66.9926 21.88 67.8459 23.56C68.7259 25.2133 69.1659 27.16 69.1659 29.4C69.1659 31.64 68.7259 33.5867 67.8459 35.24C66.9926 36.8933 65.8059 38.1867 64.2859 39.12C62.7659 40.0533 60.9926 40.52 58.9659 40.52ZM58.9659 35.76C60.4326 35.76 61.5793 35.24 62.4059 34.2C63.2593 33.16 63.6859 31.56 63.6859 29.4C63.6859 27.24 63.2593 25.64 62.4059 24.6C61.5793 23.56 60.4326 23.04 58.9659 23.04C57.5259 23.04 56.3793 23.56 55.5259 24.6C54.6993 25.64 54.2859 27.24 54.2859 29.4C54.2859 31.56 54.6993 33.16 55.5259 34.2C56.3793 35.24 57.5259 35.76 58.9659 35.76ZM74.3375 30.32V25.16H82.4175C84.0975 25.16 85.3242 24.84 86.0975 24.2C86.8708 23.56 87.2575 22.6133 87.2575 21.36C87.2575 20.08 86.8708 19.1333 86.0975 18.52C85.3242 17.88 84.0975 17.56 82.4175 17.56H74.3375V12.4H82.8175C86.0175 12.4 88.4975 13.2133 90.2575 14.84C92.0442 16.44 92.9375 18.6133 92.9375 21.36C92.9375 24.08 92.0442 26.2533 90.2575 27.88C88.4975 29.5067 86.0175 30.32 82.8175 30.32H74.3375ZM71.8575 40V12.4H77.4175V40H71.8575ZM87.3375 40L80.0175 28.04H85.8175L93.6175 40H87.3375ZM102.809 40.52C100.702 40.52 98.9824 39.7733 97.6491 38.28C96.3157 36.7867 95.6491 34.7333 95.6491 32.12V18.8H100.969V31.04C100.969 32.5867 101.342 33.7733 102.089 34.6C102.862 35.4 103.822 35.8 104.969 35.8C106.142 35.8 107.102 35.4 107.849 34.6C108.596 33.7733 108.969 32.5867 108.969 31.04H110.129C110.129 33.0133 109.822 34.72 109.209 36.16C108.596 37.5733 107.742 38.6533 106.649 39.4C105.556 40.1467 104.276 40.52 102.809 40.52ZM108.969 40V18.8H114.289V40H108.969ZM125.412 40.52C122.852 40.52 120.799 40.0267 119.252 39.04C117.732 38.0267 116.746 36.5067 116.292 34.48L121.212 32.92C121.559 34.12 122.106 34.9867 122.852 35.52C123.626 36.0533 124.599 36.32 125.772 36.32C126.866 36.32 127.679 36.16 128.212 35.84C128.746 35.4933 129.012 35 129.012 34.36C129.012 33.6933 128.719 33.1733 128.132 32.8C127.572 32.4267 126.839 32.12 125.932 31.88C125.026 31.6133 124.052 31.3467 123.012 31.08C121.999 30.7867 121.039 30.4133 120.132 29.96C119.226 29.48 118.479 28.84 117.892 28.04C117.306 27.2133 117.012 26.1333 117.012 24.8C117.012 22.9067 117.746 21.3467 119.212 20.12C120.679 18.8933 122.746 18.28 125.412 18.28C127.732 18.28 129.599 18.76 131.012 19.72C132.452 20.68 133.466 22.08 134.052 23.92L129.252 25.44C128.879 24.3733 128.359 23.6133 127.692 23.16C127.052 22.68 126.186 22.44 125.092 22.44C124.079 22.44 123.332 22.6133 122.852 22.96C122.372 23.3067 122.132 23.72 122.132 24.2C122.132 24.76 122.426 25.2133 123.012 25.56C123.599 25.88 124.359 26.16 125.292 26.4C126.226 26.6133 127.212 26.8667 128.252 27.16C129.292 27.4533 130.279 27.8533 131.212 28.36C132.146 28.8667 132.906 29.56 133.492 30.44C134.079 31.2933 134.372 32.4267 134.372 33.84C134.372 35.8133 133.586 37.4267 132.012 38.68C130.466 39.9067 128.266 40.52 125.412 40.52ZM150.008 40V27.76C150.008 26.1867 149.622 25 148.848 24.2C148.075 23.4 147.115 23 145.968 23C144.822 23 143.862 23.4 143.088 24.2C142.315 25 141.928 26.1867 141.928 27.76H140.768C140.768 25.76 141.075 24.0533 141.688 22.64C142.328 21.2267 143.195 20.1467 144.288 19.4C145.408 18.6533 146.702 18.28 148.168 18.28C149.555 18.28 150.782 18.6267 151.848 19.32C152.942 19.9867 153.795 20.9467 154.408 22.2C155.022 23.4267 155.328 24.92 155.328 26.68V40H150.008ZM136.608 40V11.4H141.928V40H136.608Z" fill="black"/>
<path d="M35.8749 40V14.032C35.8749 11.024 36.6429 8.784 38.1789 7.312C39.7469 5.808 41.9069 5.056 44.6589 5.056C45.5229 5.056 46.3069 5.12 47.0109 5.248C47.7149 5.344 48.4189 5.488 49.1229 5.68V11.056C48.5789 10.896 48.0349 10.768 47.4909 10.672C46.9789 10.576 46.4189 10.528 45.8109 10.528C44.6589 10.528 43.7629 10.816 43.1229 11.392C42.5149 11.936 42.2109 12.736 42.2109 13.792V40H35.8749ZM32.5629 19.888V14.56H48.8349V19.888H32.5629Z" fill="#4CBDC0"/>
</g>
<defs>
<filter id="filter0_d_2_3" x="0.0303192" y="0.0559998" width="160.298" height="43.464" filterUnits="userSpaceOnUse" color-interpolation-filters="sRGB">
<feFlood flood-opacity="0" result="BackgroundImageFix"/>
<feColorMatrix in="SourceAlpha" type="matrix" values="0 0 0 0 0 0 0 0 0 0 0 0 0 0 0 0 0 0 127 0" result="hardAlpha"/>
<feOffset dx="1" dy="-1"/>
<feGaussianBlur stdDeviation="2"/>
<feComposite in2="hardAlpha" operator="out"/>
<feColorMatrix type="matrix" values="0 0 0 0 0.103227 0 0 0 0 0.81596 0 0 0 0 0.975962 0 0 0 0.25 0"/>
<feBlend mode="normal" in2="BackgroundImageFix" result="effect1_dropShadow_2_3"/>
<feBlend mode="normal" in="SourceGraphic" in2="effect1_dropShadow_2_3" result="shape"/>
</filter>
</defs>
</svg>
