<svg width="169" height="49" viewBox="0 0 169 49" fill="none" xmlns="http://www.w3.org/2000/svg">
<path d="M0 0H169V49H0V0Z" fill="#E4F0EA"/>
<path d="M4.85321 43V20.21H10.5722V43H4.85321ZM7.73421 17.501C6.84554 17.501 6.11454 17.2287 5.54121 16.684C4.96787 16.1107 4.68121 15.3653 4.68121 14.448C4.68121 13.5307 4.96787 12.7997 5.54121 12.255C6.11454 11.7103 6.84554 11.438 7.73421 11.438C8.59421 11.438 9.31087 11.7103 9.88421 12.255C10.4862 12.7997 10.7872 13.5307 10.7872 14.448C10.7872 15.3653 10.4862 16.1107 9.88421 16.684C9.31087 17.2287 8.59421 17.501 7.73421 17.501ZM28.5922 43V29.842C28.5922 28.1507 28.1766 26.875 27.3452 26.015C26.5139 25.155 25.4819 24.725 24.2492 24.725C23.0166 24.725 21.9846 25.155 21.1532 26.015C20.3219 26.875 19.9062 28.1507 19.9062 29.842H18.6592C18.6592 27.692 18.9889 25.8573 19.6482 24.338C20.3362 22.8187 21.2679 21.6577 22.4432 20.855C23.6472 20.0523 25.0376 19.651 26.6142 19.651C28.1049 19.651 29.4236 20.0237 30.5702 20.769C31.7456 21.4857 32.6629 22.5177 33.3222 23.865C33.9816 25.1837 34.3112 26.789 34.3112 28.681V43H28.5922ZM14.1872 43V20.21H19.9062V43H14.1872ZM61.5558 43.559C59.4344 43.559 57.5424 43.0573 55.8798 42.054C54.2458 41.0507 52.9558 39.6603 52.0098 37.883C51.0924 36.1057 50.6338 34.013 50.6338 31.605C50.6338 29.197 51.0924 27.1043 52.0098 25.327C52.9558 23.521 54.2458 22.1307 55.8798 21.156C57.5424 20.1527 59.4344 19.651 61.5558 19.651C63.7344 19.651 65.6408 20.1527 67.2748 21.156C68.9088 22.1307 70.1844 23.521 71.1018 25.327C72.0478 27.1043 72.5208 29.197 72.5208 31.605C72.5208 34.013 72.0478 36.1057 71.1018 37.883C70.1844 39.6603 68.9088 41.0507 67.2748 42.054C65.6408 43.0573 63.7344 43.559 61.5558 43.559ZM61.5558 38.442C63.1324 38.442 64.3651 37.883 65.2538 36.765C66.1711 35.647 66.6298 33.927 66.6298 31.605C66.6298 29.283 66.1711 27.563 65.2538 26.445C64.3651 25.327 63.1324 24.768 61.5558 24.768C60.0078 24.768 58.7751 25.327 57.8578 26.445C56.9691 27.563 56.5248 29.283 56.5248 31.605C56.5248 33.927 56.9691 35.647 57.8578 36.765C58.7751 37.883 60.0078 38.442 61.5558 38.442ZM78.0802 32.594V27.047H86.7662C88.5722 27.047 89.8909 26.703 90.7222 26.015C91.5535 25.327 91.9692 24.3093 91.9692 22.962C91.9692 21.586 91.5535 20.5683 90.7222 19.909C89.8909 19.221 88.5722 18.877 86.7662 18.877H78.0802V13.33H87.1962C90.6362 13.33 93.3022 14.2043 95.1942 15.953C97.1149 17.673 98.0752 20.0093 98.0752 22.962C98.0752 25.886 97.1149 28.2223 95.1942 29.971C93.3022 31.7197 90.6362 32.594 87.1962 32.594H78.0802ZM75.4142 43V13.33H81.3912V43H75.4142ZM92.0552 43L84.1862 30.143H90.4212L98.8062 43H92.0552ZM108.687 43.559C106.422 43.559 104.573 42.7563 103.14 41.151C101.707 39.5457 100.99 37.3383 100.99 34.529V20.21H106.709V33.368C106.709 35.0307 107.11 36.3063 107.913 37.195C108.744 38.055 109.776 38.485 111.009 38.485C112.27 38.485 113.302 38.055 114.105 37.195C114.908 36.3063 115.309 35.0307 115.309 33.368H116.556C116.556 35.4893 116.226 37.324 115.567 38.872C114.908 40.3913 113.99 41.5523 112.815 42.355C111.64 43.1577 110.264 43.559 108.687 43.559ZM115.309 43V20.21H121.028V43H115.309ZM132.985 43.559C130.233 43.559 128.026 43.0287 126.363 41.968C124.729 40.8787 123.669 39.2447 123.181 37.066L128.47 35.389C128.843 36.679 129.431 37.6107 130.233 38.184C131.065 38.7573 132.111 39.044 133.372 39.044C134.548 39.044 135.422 38.872 135.995 38.528C136.569 38.1553 136.855 37.625 136.855 36.937C136.855 36.2203 136.54 35.6613 135.909 35.26C135.307 34.8587 134.519 34.529 133.544 34.271C132.57 33.9843 131.523 33.6977 130.405 33.411C129.316 33.0957 128.284 32.6943 127.309 32.207C126.335 31.691 125.532 31.003 124.901 30.143C124.271 29.2543 123.955 28.0933 123.955 26.66C123.955 24.6247 124.744 22.9477 126.32 21.629C127.897 20.3103 130.119 19.651 132.985 19.651C135.479 19.651 137.486 20.167 139.005 21.199C140.553 22.231 141.643 23.736 142.273 25.714L137.113 27.348C136.712 26.2013 136.153 25.3843 135.436 24.897C134.748 24.381 133.817 24.123 132.641 24.123C131.552 24.123 130.749 24.3093 130.233 24.682C129.717 25.0547 129.459 25.499 129.459 26.015C129.459 26.617 129.775 27.1043 130.405 27.477C131.036 27.821 131.853 28.122 132.856 28.38C133.86 28.6093 134.92 28.8817 136.038 29.197C137.156 29.5123 138.217 29.9423 139.22 30.487C140.224 31.0317 141.041 31.777 141.671 32.723C142.302 33.6403 142.617 34.8587 142.617 36.378C142.617 38.4993 141.772 40.2337 140.08 41.581C138.418 42.8997 136.053 43.559 132.985 43.559ZM159.426 43V29.842C159.426 28.1507 159.011 26.875 158.179 26.015C157.348 25.155 156.316 24.725 155.083 24.725C153.851 24.725 152.819 25.155 151.987 26.015C151.156 26.875 150.74 28.1507 150.74 29.842H149.493C149.493 27.692 149.823 25.8573 150.482 24.338C151.17 22.8187 152.102 21.6577 153.277 20.855C154.481 20.0523 155.872 19.651 157.448 19.651C158.939 19.651 160.258 20.0237 161.404 20.769C162.58 21.4857 163.497 22.5177 164.156 23.865C164.816 25.1837 165.145 26.789 165.145 28.681V43H159.426ZM145.021 43V12.255H150.74V43H145.021Z" fill="black"/>
<path d="M38.8276 43V19.737C38.8276 17.0423 39.5156 15.0357 40.8916 13.717C42.2962 12.3697 44.2312 11.696 46.6966 11.696C47.4706 11.696 48.1729 11.7533 48.8036 11.868C49.4342 11.954 50.0649 12.083 50.6956 12.255V17.071C50.2082 16.9277 49.7209 16.813 49.2336 16.727C48.7749 16.641 48.2732 16.598 47.7286 16.598C46.6966 16.598 45.8939 16.856 45.3206 17.372C44.7759 17.8593 44.5036 18.576 44.5036 19.522V43H38.8276ZM35.8606 24.983V20.21H50.4376V24.983H35.8606Z" fill="#4CBDC0"/>
</svg>
