<svg width="188" height="64" viewBox="0 0 188 64" fill="none" xmlns="http://www.w3.org/2000/svg">
<path d="M12.8885 49V26.21H18.6075V49H12.8885ZM15.7695 23.501C14.8809 23.501 14.1499 23.2287 13.5765 22.684C13.0032 22.1107 12.7165 21.3653 12.7165 20.448C12.7165 19.5307 13.0032 18.7997 13.5765 18.255C14.1499 17.7103 14.8809 17.438 15.7695 17.438C16.6295 17.438 17.3462 17.7103 17.9195 18.255C18.5215 18.7997 18.8225 19.5307 18.8225 20.448C18.8225 21.3653 18.5215 22.1107 17.9195 22.684C17.3462 23.2287 16.6295 23.501 15.7695 23.501ZM36.6275 49V35.842C36.6275 34.1507 36.2119 32.875 35.3805 32.015C34.5492 31.155 33.5172 30.725 32.2845 30.725C31.0519 30.725 30.0199 31.155 29.1885 32.015C28.3572 32.875 27.9415 34.1507 27.9415 35.842H26.6945C26.6945 33.692 27.0242 31.8573 27.6835 30.338C28.3715 28.8187 29.3032 27.6577 30.4785 26.855C31.6825 26.0523 33.0729 25.651 34.6495 25.651C36.1402 25.651 37.4589 26.0237 38.6055 26.769C39.7809 27.4857 40.6982 28.5177 41.3575 29.865C42.0169 31.1837 42.3465 32.789 42.3465 34.681V49H36.6275ZM22.2225 49V26.21H27.9415V49H22.2225ZM71.5205 49.559C69.3991 49.559 67.5071 49.0573 65.8445 48.054C64.2105 47.0507 62.9205 45.6603 61.9745 43.883C61.0571 42.1057 60.5985 40.013 60.5985 37.605C60.5985 35.197 61.0571 33.1043 61.9745 31.327C62.9205 29.521 64.2105 28.1307 65.8445 27.156C67.5071 26.1527 69.3991 25.651 71.5205 25.651C73.6991 25.651 75.6055 26.1527 77.2395 27.156C78.8735 28.1307 80.1491 29.521 81.0665 31.327C82.0125 33.1043 82.4855 35.197 82.4855 37.605C82.4855 40.013 82.0125 42.1057 81.0665 43.883C80.1491 45.6603 78.8735 47.0507 77.2395 48.054C75.6055 49.0573 73.6991 49.559 71.5205 49.559ZM71.5205 44.442C73.0971 44.442 74.3298 43.883 75.2185 42.765C76.1358 41.647 76.5945 39.927 76.5945 37.605C76.5945 35.283 76.1358 33.563 75.2185 32.445C74.3298 31.327 73.0971 30.768 71.5205 30.768C69.9725 30.768 68.7398 31.327 67.8225 32.445C66.9338 33.563 66.4895 35.283 66.4895 37.605C66.4895 39.927 66.9338 41.647 67.8225 42.765C68.7398 43.883 69.9725 44.442 71.5205 44.442ZM88.0449 38.594V33.047H96.7309C98.5369 33.047 99.8556 32.703 100.687 32.015C101.518 31.327 101.934 30.3093 101.934 28.962C101.934 27.586 101.518 26.5683 100.687 25.909C99.8556 25.221 98.5369 24.877 96.7309 24.877H88.0449V19.33H97.1609C100.601 19.33 103.267 20.2043 105.159 21.953C107.08 23.673 108.04 26.0093 108.04 28.962C108.04 31.886 107.08 34.2223 105.159 35.971C103.267 37.7197 100.601 38.594 97.1609 38.594H88.0449ZM85.3789 49V19.33H91.3559V49H85.3789ZM102.02 49L94.1509 36.143H100.386L108.771 49H102.02ZM118.652 49.559C116.387 49.559 114.538 48.7563 113.105 47.151C111.671 45.5457 110.955 43.3383 110.955 40.529V26.21H116.674V39.368C116.674 41.0307 117.075 42.3063 117.878 43.195C118.709 44.055 119.741 44.485 120.974 44.485C122.235 44.485 123.267 44.055 124.07 43.195C124.872 42.3063 125.274 41.0307 125.274 39.368H126.521C126.521 41.4893 126.191 43.324 125.532 44.872C124.872 46.3913 123.955 47.5523 122.78 48.355C121.604 49.1577 120.228 49.559 118.652 49.559ZM125.274 49V26.21H130.993V49H125.274ZM142.95 49.559C140.198 49.559 137.991 49.0287 136.328 47.968C134.694 46.8787 133.634 45.2447 133.146 43.066L138.435 41.389C138.808 42.679 139.396 43.6107 140.198 44.184C141.03 44.7573 142.076 45.044 143.337 45.044C144.513 45.044 145.387 44.872 145.96 44.528C146.534 44.1553 146.82 43.625 146.82 42.937C146.82 42.2203 146.505 41.6613 145.874 41.26C145.272 40.8587 144.484 40.529 143.509 40.271C142.535 39.9843 141.488 39.6977 140.37 39.411C139.281 39.0957 138.249 38.6943 137.274 38.207C136.3 37.691 135.497 37.003 134.866 36.143C134.236 35.2543 133.92 34.0933 133.92 32.66C133.92 30.6247 134.709 28.9477 136.285 27.629C137.862 26.3103 140.084 25.651 142.95 25.651C145.444 25.651 147.451 26.167 148.97 27.199C150.518 28.231 151.608 29.736 152.238 31.714L147.078 33.348C146.677 32.2013 146.118 31.3843 145.401 30.897C144.713 30.381 143.782 30.123 142.606 30.123C141.517 30.123 140.714 30.3093 140.198 30.682C139.682 31.0547 139.424 31.499 139.424 32.015C139.424 32.617 139.74 33.1043 140.37 33.477C141.001 33.821 141.818 34.122 142.821 34.38C143.825 34.6093 144.885 34.8817 146.003 35.197C147.121 35.5123 148.182 35.9423 149.185 36.487C150.189 37.0317 151.006 37.777 151.636 38.723C152.267 39.6403 152.582 40.8587 152.582 42.378C152.582 44.4993 151.737 46.2337 150.045 47.581C148.383 48.8997 146.018 49.559 142.95 49.559ZM169.391 49V35.842C169.391 34.1507 168.975 32.875 168.144 32.015C167.313 31.155 166.281 30.725 165.048 30.725C163.815 30.725 162.783 31.155 161.952 32.015C161.121 32.875 160.705 34.1507 160.705 35.842H159.458C159.458 33.692 159.788 31.8573 160.447 30.338C161.135 28.8187 162.067 27.6577 163.242 26.855C164.446 26.0523 165.836 25.651 167.413 25.651C168.904 25.651 170.222 26.0237 171.369 26.769C172.544 27.4857 173.462 28.5177 174.121 29.865C174.78 31.1837 175.11 32.789 175.11 34.681V49H169.391ZM154.986 49V18.255H160.705V49H154.986Z" fill="white"/>
<path d="M47.3309 49V22.491C47.3309 19.4203 48.1149 17.1337 49.6829 15.631C51.2836 14.0957 53.4886 13.328 56.2979 13.328C57.1799 13.328 57.9802 13.3933 58.6989 13.524C59.4176 13.622 60.1362 13.769 60.8549 13.965V19.453C60.2996 19.2897 59.7442 19.159 59.1889 19.061C58.6662 18.963 58.0946 18.914 57.4739 18.914C56.2979 18.914 55.3832 19.208 54.7299 19.796C54.1092 20.3513 53.7989 21.168 53.7989 22.246V49H47.3309ZM43.9499 28.469V23.03H60.5609V28.469H43.9499Z" fill="#4CBDC0"/>
</svg>
